<svg width="54" height="54" viewBox="0 0 54 54" fill="none" xmlns="http://www.w3.org/2000/svg">
<rect width="54" height="54" rx="27" fill="#38ABBE"/>
<path fill-rule="evenodd" clip-rule="evenodd" d="M10.9189 16.2892C10.9189 16.2892 10.0459 16.6604 10.0358 18.3252C10.0263 19.8724 10.0358 35.7784 10.0358 35.7784C10.0358 35.7784 9.84918 37.2482 11.3606 37.9599C12.9027 38.821 26.8178 46.8319 26.8178 46.8319C26.8178 46.8319 27.7619 47.3387 28.7317 46.8319L44.4835 37.8146C44.4835 37.8146 45.5298 37.1907 45.514 36.3601C45.498 35.5297 45.514 17.5983 45.514 17.5983C45.514 17.5983 45.5004 16.9781 44.9249 16.5799C44.3495 16.1819 28.5845 7.1262 28.5845 7.1262C28.5845 7.1262 27.9357 6.71365 26.965 7.1262C25.9856 7.66657 10.9189 16.2892 10.9189 16.2892ZM27.1478 42.5209C27.1478 42.5209 19.5499 38.1607 16.3247 36.3223L27.0155 29.9088C27.0155 29.9088 27.8954 29.3327 27.8954 28.0194L27.8954 24.6764L13.9711 33.033C13.9706 32.2939 13.9701 31.1272 13.9697 29.7916L13.9684 23.8781C13.9686 22.0458 13.9694 20.5873 13.9716 20.2117C13.9795 18.9088 14.6651 18.618 14.6651 18.618C14.6651 18.618 26.4943 11.8701 27.2633 11.4472C28.0253 11.1242 28.5347 11.4472 28.5347 11.4472C28.5347 11.4472 40.9121 18.5343 41.364 18.8457C41.8159 19.1572 41.8264 19.6425 41.8264 19.6425C41.8264 19.6425 41.8139 33.6759 41.8264 34.3257C41.8389 34.9757 41.0173 35.4641 41.0173 35.4641L28.6504 42.5209C27.889 42.9176 27.1478 42.5209 27.1478 42.5209Z" fill="#F1F0F2"/>
<path fill-rule="evenodd" clip-rule="evenodd" d="M44.6241 16.2892C44.6241 16.2892 45.4971 16.6604 45.5072 18.3252C45.5166 19.8724 45.5072 35.7784 45.5072 35.7784C45.5072 35.7784 45.6938 37.2482 44.1823 37.9599C42.6402 38.821 28.7252 46.8319 28.7252 46.8319C28.7252 46.8319 27.7811 47.3387 26.8113 46.8319L11.0595 37.8146C11.0595 37.8146 10.0132 37.1907 10.029 36.3601C10.0449 35.5297 10.029 17.5983 10.029 17.5983C10.029 17.5983 10.0426 16.9781 10.6181 16.5799C11.1935 16.1819 26.9585 7.1262 26.9585 7.1262C26.9585 7.1262 27.6072 6.71364 28.578 7.1262C29.5574 7.66656 44.6241 16.2892 44.6241 16.2892ZM28.3951 42.5209C28.3951 42.5209 35.9931 38.1607 39.2182 36.3223L28.5275 29.9088C28.5275 29.9088 27.6476 29.3327 27.6476 28.0194L27.6476 24.6764L41.5719 33.033C41.5723 32.2939 41.5729 31.1272 41.5733 29.7916L41.5745 23.8781C41.5744 22.0458 41.5736 20.5873 41.5714 20.2117C41.5635 18.9088 40.8779 18.618 40.8779 18.618C40.8779 18.618 29.0487 11.8701 28.2797 11.4472C27.5177 11.1242 27.0083 11.4472 27.0083 11.4472C27.0083 11.4472 14.6309 18.5343 14.179 18.8457C13.7271 19.1572 13.7166 19.6425 13.7166 19.6425C13.7166 19.6425 13.729 33.6759 13.7166 34.3257C13.7041 34.9756 14.5257 35.4641 14.5257 35.4641L26.8925 42.5209C27.6539 42.9176 28.3951 42.5209 28.3951 42.5209Z" fill="#F1F0F2"/>
</svg>
