<svg width="12" height="13" viewBox="0 0 12 13" fill="none" xmlns="http://www.w3.org/2000/svg">
<path d="M5.17424 8.91871H2.13731" stroke="white" stroke-width="0.694077" stroke-linecap="round" stroke-linejoin="round"/>
<path d="M6.52881 4.24694H9.56574" stroke="white" stroke-width="0.694077" stroke-linecap="round" stroke-linejoin="round"/>
<path fill-rule="evenodd" clip-rule="evenodd" d="M4.40118 4.22084C4.40118 3.59634 3.89115 3.08995 3.26215 3.08995C2.63315 3.08995 2.12312 3.59634 2.12312 4.22084C2.12312 4.84534 2.63315 5.35173 3.26215 5.35173C3.89115 5.35173 4.40118 4.84534 4.40118 4.22084Z" stroke="white" stroke-width="0.694077" stroke-linecap="round" stroke-linejoin="round"/>
<path fill-rule="evenodd" clip-rule="evenodd" d="M9.83509 8.89983C9.83509 8.27532 9.32545 7.76894 8.69645 7.76894C8.06706 7.76894 7.55703 8.27532 7.55703 8.89983C7.55703 9.52433 8.06706 10.0307 8.69645 10.0307C9.32545 10.0307 9.83509 9.52433 9.83509 8.89983Z" stroke="white" stroke-width="0.694077" stroke-linecap="round" stroke-linejoin="round"/>
</svg>
