<svg width="48" height="48" viewBox="0 0 48 48" fill="none" xmlns="http://www.w3.org/2000/svg">
<g filter="url(#filter0_d_72_1163)">
<circle cx="24" cy="22" r="20" fill="#2F3344"/>
</g>
<path fill-rule="evenodd" clip-rule="evenodd" d="M24.5908 31.7681C26.2784 30.2414 31 25.4291 31 19.3734C31 15.6867 28.8125 12 24 12C19.1875 12 17 15.6867 17 19.3734C17 25.4291 21.7216 30.2414 23.4092 31.7681C23.751 32.0773 24.249 32.0773 24.5908 31.7681ZM24 22.1385C25.6569 22.1385 27 20.7767 27 19.0969C27 17.4171 25.6569 16.0554 24 16.0554C22.3431 16.0554 21 17.4171 21 19.0969C21 20.7767 22.3431 22.1385 24 22.1385Z" fill="#38ABBE"/>
<defs>
<filter id="filter0_d_72_1163" x="0" y="0" width="48" height="48" filterUnits="userSpaceOnUse" color-interpolation-filters="sRGB">
<feFlood flood-opacity="0" result="BackgroundImageFix"/>
<feColorMatrix in="SourceAlpha" type="matrix" values="0 0 0 0 0 0 0 0 0 0 0 0 0 0 0 0 0 0 127 0" result="hardAlpha"/>
<feOffset dy="2"/>
<feGaussianBlur stdDeviation="2"/>
<feColorMatrix type="matrix" values="0 0 0 0 0 0 0 0 0 0 0 0 0 0 0 0 0 0 0.06 0"/>
<feBlend mode="normal" in2="BackgroundImageFix" result="effect1_dropShadow_72_1163"/>
<feBlend mode="normal" in="SourceGraphic" in2="effect1_dropShadow_72_1163" result="shape"/>
</filter>
</defs>
</svg>
