<svg width="48" height="48" viewBox="0 0 48 48" fill="none" xmlns="http://www.w3.org/2000/svg">
<g filter="url(#filter0_d_72_1153)">
<circle cx="24" cy="22" r="20" fill="#2F3344"/>
</g>
<path fill-rule="evenodd" clip-rule="evenodd" d="M15.666 19.4998C15.666 16.2782 18.2777 13.6665 21.4993 13.6665H28.166C28.6263 13.6665 28.9993 14.0396 28.9993 14.4998C28.9993 14.9601 28.6263 15.3332 28.166 15.3332H21.4993C19.1982 15.3332 17.3327 17.1987 17.3327 19.4998V26.1665C17.3327 26.6267 16.9596 26.9998 16.4993 26.9998C16.0391 26.9998 15.666 26.6267 15.666 26.1665V19.4998Z" fill="#38ABBE"/>
<path d="M18.9993 20.3332C18.9993 18.4922 20.4917 16.9998 22.3327 16.9998H28.9993C30.8403 16.9998 32.3327 18.4922 32.3327 20.3332V26.9998C32.3327 28.8408 30.8403 30.3332 28.9993 30.3332H22.3327C20.4917 30.3332 18.9993 28.8408 18.9993 26.9998V20.3332Z" fill="#38ABBE"/>
<defs>
<filter id="filter0_d_72_1153" x="0" y="0" width="48" height="48" filterUnits="userSpaceOnUse" color-interpolation-filters="sRGB">
<feFlood flood-opacity="0" result="BackgroundImageFix"/>
<feColorMatrix in="SourceAlpha" type="matrix" values="0 0 0 0 0 0 0 0 0 0 0 0 0 0 0 0 0 0 127 0" result="hardAlpha"/>
<feOffset dy="2"/>
<feGaussianBlur stdDeviation="2"/>
<feColorMatrix type="matrix" values="0 0 0 0 0 0 0 0 0 0 0 0 0 0 0 0 0 0 0.06 0"/>
<feBlend mode="normal" in2="BackgroundImageFix" result="effect1_dropShadow_72_1153"/>
<feBlend mode="normal" in="SourceGraphic" in2="effect1_dropShadow_72_1153" result="shape"/>
</filter>
</defs>
</svg>
